<svg id="visual" viewBox="0 0 900 600" width="900" height="600" xmlns="http://www.w3.org/2000/svg" xmlns:xlink="http://www.w3.org/1999/xlink" version="1.1"><rect x="0" y="0" width="900" height="600" fill="#001220"></rect><defs><linearGradient id="grad1_0" x1="33.3%" y1="0%" x2="100%" y2="100%"><stop offset="20%" stop-color="#3cfa3c" stop-opacity="1"></stop><stop offset="80%" stop-color="#3cfa3c" stop-opacity="1"></stop></linearGradient></defs><defs><linearGradient id="grad1_1" x1="33.3%" y1="0%" x2="100%" y2="100%"><stop offset="20%" stop-color="#3cfa3c" stop-opacity="1"></stop><stop offset="80%" stop-color="#00ac8c" stop-opacity="1"></stop></linearGradient></defs><defs><linearGradient id="grad1_2" x1="33.3%" y1="0%" x2="100%" y2="100%"><stop offset="20%" stop-color="#005a78" stop-opacity="1"></stop><stop offset="80%" stop-color="#00ac8c" stop-opacity="1"></stop></linearGradient></defs><defs><linearGradient id="grad1_3" x1="33.3%" y1="0%" x2="100%" y2="100%"><stop offset="20%" stop-color="#005a78" stop-opacity="1"></stop><stop offset="80%" stop-color="#001220" stop-opacity="1"></stop></linearGradient></defs><defs><linearGradient id="grad2_0" x1="0%" y1="0%" x2="66.7%" y2="100%"><stop offset="20%" stop-color="#3cfa3c" stop-opacity="1"></stop><stop offset="80%" stop-color="#3cfa3c" stop-opacity="1"></stop></linearGradient></defs><defs><linearGradient id="grad2_1" x1="0%" y1="0%" x2="66.7%" y2="100%"><stop offset="20%" stop-color="#00ac8c" stop-opacity="1"></stop><stop offset="80%" stop-color="#3cfa3c" stop-opacity="1"></stop></linearGradient></defs><defs><linearGradient id="grad2_2" x1="0%" y1="0%" x2="66.7%" y2="100%"><stop offset="20%" stop-color="#00ac8c" stop-opacity="1"></stop><stop offset="80%" stop-color="#005a78" stop-opacity="1"></stop></linearGradient></defs><defs><linearGradient id="grad2_3" x1="0%" y1="0%" x2="66.7%" y2="100%"><stop offset="20%" stop-color="#001220" stop-opacity="1"></stop><stop offset="80%" stop-color="#005a78" stop-opacity="1"></stop></linearGradient></defs><g transform="translate(900, 0)"><path d="M0 486.7C-69.4 474.4 -138.7 462 -172.2 415.7C-205.7 369.5 -203.3 289.5 -252.4 252.4C-301.5 215.3 -402.1 221.2 -449.7 186.3C-497.3 151.4 -492 75.7 -486.7 0L0 0Z" fill="#003450"></path><path d="M0 365.1C-52 355.8 -104 346.5 -129.2 311.8C-154.3 277.2 -152.5 217.1 -189.3 189.3C-226.1 161.5 -301.6 165.9 -337.3 139.7C-373 113.5 -369 56.8 -365.1 0L0 0Z" fill="#00838e"></path><path d="M0 243.4C-34.7 237.2 -69.4 231 -86.1 207.9C-102.9 184.8 -101.7 144.8 -126.2 126.2C-150.8 107.7 -201 110.6 -224.8 93.1C-248.7 75.7 -246 37.8 -243.4 0L0 0Z" fill="#00d572"></path><path d="M0 121.7C-17.3 118.6 -34.7 115.5 -43.1 103.9C-51.4 92.4 -50.8 72.4 -63.1 63.1C-75.4 53.8 -100.5 55.3 -112.4 46.6C-124.3 37.8 -123 18.9 -121.7 0L0 0Z" fill="#3cfa3c"></path></g><g transform="translate(0, 600)"><path d="M0 -486.7C66.9 -484.7 133.9 -482.7 186.3 -449.7C238.7 -416.6 276.5 -352.5 296.3 -296.3C316 -240 317.7 -191.6 346.5 -143.5C375.2 -95.4 431 -47.7 486.7 0L0 0Z" fill="#003450"></path><path d="M0 -365.1C50.2 -363.6 100.4 -362.1 139.7 -337.3C179 -312.5 207.4 -264.4 222.2 -222.2C237 -180 238.3 -143.7 259.8 -107.6C281.4 -71.6 323.2 -35.8 365.1 0L0 0Z" fill="#00838e"></path><path d="M0 -243.4C33.5 -242.4 66.9 -241.4 93.1 -224.8C119.3 -208.3 138.3 -176.3 148.1 -148.1C158 -120 158.9 -95.8 173.2 -71.8C187.6 -47.7 215.5 -23.9 243.4 0L0 0Z" fill="#00d572"></path><path d="M0 -121.7C16.7 -121.2 33.5 -120.7 46.6 -112.4C59.7 -104.2 69.1 -88.1 74.1 -74.1C79 -60 79.4 -47.9 86.6 -35.9C93.8 -23.9 107.7 -11.9 121.7 0L0 0Z" fill="#3cfa3c"></path></g></svg>