<?xml version="1.0" standalone="no"?><svg xmlns="http://www.w3.org/2000/svg" viewBox="0 0 1440 320"><path fill="#00cba9" fill-opacity="0.69" d="M0,96L0,64L48,64L48,320L96,320L96,192L144,192L144,320L192,320L192,32L240,32L240,160L288,160L288,128L336,128L336,192L384,192L384,224L432,224L432,288L480,288L480,256L528,256L528,320L576,320L576,192L624,192L624,128L672,128L672,96L720,96L720,128L768,128L768,256L816,256L816,256L864,256L864,256L912,256L912,256L960,256L960,96L1008,96L1008,64L1056,64L1056,256L1104,256L1104,128L1152,128L1152,0L1200,0L1200,224L1248,224L1248,128L1296,128L1296,32L1344,32L1344,0L1392,0L1392,256L1440,256L1440,320L1392,320L1392,320L1344,320L1344,320L1296,320L1296,320L1248,320L1248,320L1200,320L1200,320L1152,320L1152,320L1104,320L1104,320L1056,320L1056,320L1008,320L1008,320L960,320L960,320L912,320L912,320L864,320L864,320L816,320L816,320L768,320L768,320L720,320L720,320L672,320L672,320L624,320L624,320L576,320L576,320L528,320L528,320L480,320L480,320L432,320L432,320L384,320L384,320L336,320L336,320L288,320L288,320L240,320L240,320L192,320L192,320L144,320L144,320L96,320L96,320L48,320L48,320L0,320L0,320Z"></path></svg>